<svg id="svg" version="1.1" xmlns="http://www.w3.org/2000/svg" xmlns:xlink="http://www.w3.org/1999/xlink" width="400" height="400" viewBox="0, 0, 400,400"><g id="svgg"><path id="path0" d="M67.200 133.600 L 67.200 200.000 100.600 200.000 L 134.000 200.000 134.000 267.001 L 134.000 334.002 200.500 333.901 L 267.000 333.800 267.102 300.502 L 267.205 267.205 233.702 267.102 L 200.200 267.000 200.200 233.600 L 200.200 200.200 233.600 200.200 L 267.000 200.200 267.102 233.500 L 267.205 266.800 300.602 266.800 L 334.000 266.800 334.000 200.400 L 334.000 134.000 267.000 134.000 L 200.000 134.000 200.000 100.600 L 200.000 67.200 133.600 67.200 L 67.200 67.200 67.200 133.600 " stroke="none" fill="#fcfcfc" fill-rule="evenodd"></path><path id="path1" d="M0.000 200.000 L 0.000 400.000 200.000 400.000 L 400.000 400.000 400.000 200.000 L 400.000 0.000 200.000 0.000 L 0.000 0.000 0.000 200.000 M200.000 100.600 L 200.000 134.000 267.000 134.000 L 334.000 134.000 334.000 200.400 L 334.000 266.800 300.602 266.800 L 267.205 266.800 267.102 233.500 L 267.000 200.200 233.600 200.200 L 200.200 200.200 200.200 233.600 L 200.200 267.000 233.702 267.102 L 267.205 267.205 267.102 300.502 L 267.000 333.800 200.500 333.901 L 134.000 334.002 134.000 267.001 L 134.000 200.000 100.600 200.000 L 67.200 200.000 67.200 133.600 L 67.200 67.200 133.600 67.200 L 200.000 67.200 200.000 100.600 " stroke="none" fill="#040404" fill-rule="evenodd"></path></g></svg>