<svg id="svg" version="1.1" xmlns="http://www.w3.org/2000/svg" xmlns:xlink="http://www.w3.org/1999/xlink" width="400" height="400" viewBox="0, 0, 400,400"><g id="svgg"><path id="path0" d="M67.200 200.600 L 67.200 334.000 100.598 334.000 L 133.995 334.000 134.098 300.500 L 134.200 267.000 167.098 266.898 L 199.995 266.795 200.098 233.498 L 200.200 200.200 233.700 200.098 L 267.200 199.995 267.200 233.398 L 267.200 266.800 300.600 266.800 L 334.000 266.800 334.000 233.400 L 334.000 200.000 300.600 200.000 L 267.200 200.000 267.200 167.000 L 267.200 134.000 300.600 134.000 L 334.000 134.000 334.000 100.600 L 334.000 67.200 200.600 67.200 L 67.200 67.200 67.200 200.600 M200.000 300.602 L 200.000 334.005 233.500 333.902 L 267.000 333.800 267.102 300.500 L 267.205 267.200 233.602 267.200 L 200.000 267.200 200.000 300.602 " stroke="none" fill="#fcfcfc" fill-rule="evenodd"></path><path id="path1" d="M0.000 200.000 L 0.000 400.000 200.000 400.000 L 400.000 400.000 400.000 200.000 L 400.000 0.000 200.000 0.000 L 0.000 0.000 0.000 200.000 M334.000 100.600 L 334.000 134.000 300.600 134.000 L 267.200 134.000 267.200 167.000 L 267.200 200.000 300.600 200.000 L 334.000 200.000 334.000 233.400 L 334.000 266.800 300.600 266.800 L 267.200 266.800 267.200 233.398 L 267.200 199.995 233.700 200.098 L 200.200 200.200 200.098 233.498 L 199.995 266.795 167.098 266.898 L 134.200 267.000 134.098 300.500 L 133.995 334.000 100.598 334.000 L 67.200 334.000 67.200 200.600 L 67.200 67.200 200.600 67.200 L 334.000 67.200 334.000 100.600 M267.102 300.500 L 267.000 333.800 233.500 333.902 L 200.000 334.005 200.000 300.602 L 200.000 267.200 233.602 267.200 L 267.205 267.200 267.102 300.500 " stroke="none" fill="#040404" fill-rule="evenodd"></path></g></svg>