<svg id="svg" version="1.1" xmlns="http://www.w3.org/2000/svg" xmlns:xlink="http://www.w3.org/1999/xlink" width="400" height="400" viewBox="0, 0, 400,400"><g id="svgg"><path id="path0" d="M200.000 167.000 L 200.000 266.800 233.600 266.800 L 267.200 266.800 267.200 233.400 L 267.200 200.000 300.600 200.000 L 334.000 200.000 334.000 133.600 L 334.000 67.200 267.000 67.200 L 200.000 67.200 200.000 167.000 M67.200 300.600 L 67.200 334.000 133.600 334.000 L 200.000 334.000 200.000 300.600 L 200.000 267.200 133.600 267.200 L 67.200 267.200 67.200 300.600 M267.200 300.600 L 267.200 334.000 300.600 334.000 L 334.000 334.000 334.000 300.600 L 334.000 267.200 300.600 267.200 L 267.200 267.200 267.200 300.600 " stroke="none" fill="#fcfcfc" fill-rule="evenodd"></path><path id="path1" d="M0.000 200.000 L 0.000 400.000 200.000 400.000 L 400.000 400.000 400.000 200.000 L 400.000 0.000 200.000 0.000 L 0.000 0.000 0.000 200.000 M334.000 133.600 L 334.000 200.000 300.600 200.000 L 267.200 200.000 267.200 233.400 L 267.200 266.800 233.600 266.800 L 200.000 266.800 200.000 167.000 L 200.000 67.200 267.000 67.200 L 334.000 67.200 334.000 133.600 M200.000 300.600 L 200.000 334.000 133.600 334.000 L 67.200 334.000 67.200 300.600 L 67.200 267.200 133.600 267.200 L 200.000 267.200 200.000 300.600 M334.000 300.600 L 334.000 334.000 300.600 334.000 L 267.200 334.000 267.200 300.600 L 267.200 267.200 300.600 267.200 L 334.000 267.200 334.000 300.600 " stroke="none" fill="#040404" fill-rule="evenodd"></path></g></svg>