<svg id="svg" version="1.1" xmlns="http://www.w3.org/2000/svg" xmlns:xlink="http://www.w3.org/1999/xlink" width="400" height="400" viewBox="0, 0, 400,400"><g id="svgg"><path id="path0" d="M134.000 100.600 L 134.000 134.000 100.600 134.000 L 67.200 134.000 67.200 234.000 L 67.200 334.000 133.600 334.000 L 200.000 334.000 200.000 267.000 L 200.000 200.000 167.000 200.000 L 134.000 200.000 134.000 166.999 L 134.000 133.998 200.500 134.099 L 267.000 134.200 267.102 167.100 L 267.205 200.000 300.602 200.000 L 334.000 200.000 334.000 133.600 L 334.000 67.200 234.000 67.200 L 134.000 67.200 134.000 100.600 M267.200 300.600 L 267.200 334.000 300.600 334.000 L 334.000 334.000 334.000 300.600 L 334.000 267.200 300.600 267.200 L 267.200 267.200 267.200 300.600 " stroke="none" fill="#fcfcfc" fill-rule="evenodd"></path><path id="path1" d="M0.000 200.000 L 0.000 400.000 200.000 400.000 L 400.000 400.000 400.000 200.000 L 400.000 0.000 200.000 0.000 L 0.000 0.000 0.000 200.000 M334.000 133.600 L 334.000 200.000 300.602 200.000 L 267.205 200.000 267.102 167.100 L 267.000 134.200 200.500 134.099 L 134.000 133.998 134.000 166.999 L 134.000 200.000 167.000 200.000 L 200.000 200.000 200.000 267.000 L 200.000 334.000 133.600 334.000 L 67.200 334.000 67.200 234.000 L 67.200 134.000 100.600 134.000 L 134.000 134.000 134.000 100.600 L 134.000 67.200 234.000 67.200 L 334.000 67.200 334.000 133.600 M334.000 300.600 L 334.000 334.000 300.600 334.000 L 267.200 334.000 267.200 300.600 L 267.200 267.200 300.600 267.200 L 334.000 267.200 334.000 300.600 " stroke="none" fill="#040404" fill-rule="evenodd"></path></g></svg>