<svg id="svg" version="1.1" xmlns="http://www.w3.org/2000/svg" xmlns:xlink="http://www.w3.org/1999/xlink" width="400" height="400" viewBox="0, 0, 400,400"><g id="svgg"><path id="path0" d="M267.200 133.598 L 267.200 199.995 233.700 200.098 L 200.200 200.200 200.000 233.600 L 199.800 267.000 166.900 267.102 L 134.000 267.205 134.000 300.602 L 134.000 334.000 234.000 334.000 L 334.000 334.000 334.000 300.602 L 334.000 267.205 300.700 267.102 L 267.400 267.000 267.298 233.500 L 267.195 200.000 300.598 200.000 L 334.000 200.000 334.000 133.600 L 334.000 67.200 300.600 67.200 L 267.200 67.200 267.200 133.598 M67.200 233.400 L 67.200 266.800 100.600 266.800 L 134.000 266.800 134.000 233.400 L 134.000 200.000 100.600 200.000 L 67.200 200.000 67.200 233.400 " stroke="none" fill="#fcfcfc" fill-rule="evenodd"></path><path id="path1" d="M0.000 200.000 L 0.000 400.000 200.000 400.000 L 400.000 400.000 400.000 200.000 L 400.000 0.000 200.000 0.000 L 0.000 0.000 0.000 200.000 M334.000 133.600 L 334.000 200.000 300.598 200.000 L 267.195 200.000 267.298 233.500 L 267.400 267.000 300.700 267.102 L 334.000 267.205 334.000 300.602 L 334.000 334.000 234.000 334.000 L 134.000 334.000 134.000 300.602 L 134.000 267.205 166.900 267.102 L 199.800 267.000 200.000 233.600 L 200.200 200.200 233.700 200.098 L 267.200 199.995 267.200 133.598 L 267.200 67.200 300.600 67.200 L 334.000 67.200 334.000 133.600 M134.000 233.400 L 134.000 266.800 100.600 266.800 L 67.200 266.800 67.200 233.400 L 67.200 200.000 100.600 200.000 L 134.000 200.000 134.000 233.400 " stroke="none" fill="#040404" fill-rule="evenodd"></path></g></svg>