<svg id="svg" version="1.1" xmlns="http://www.w3.org/2000/svg" xmlns:xlink="http://www.w3.org/1999/xlink" width="400" height="400" viewBox="0, 0, 400,400"><g id="svgg"><path id="path0" d="M67.200 133.600 L 67.200 200.000 133.602 200.000 L 200.005 200.000 199.902 233.500 L 199.800 267.000 133.500 267.101 L 67.200 267.202 67.200 300.602 L 67.200 334.002 167.100 333.901 L 267.000 333.800 267.101 233.900 L 267.202 134.000 300.601 134.000 L 334.000 134.000 334.000 100.600 L 334.000 67.200 300.600 67.200 L 267.200 67.200 267.200 100.600 L 267.200 134.000 200.600 134.000 L 134.000 134.000 134.000 100.600 L 134.000 67.200 100.600 67.200 L 67.200 67.200 67.200 133.600 " stroke="none" fill="#fcfcfc" fill-rule="evenodd"></path><path id="path1" d="M0.000 200.000 L 0.000 400.000 200.000 400.000 L 400.000 400.000 400.000 200.000 L 400.000 0.000 200.000 0.000 L 0.000 0.000 0.000 200.000 M134.000 100.600 L 134.000 134.000 200.600 134.000 L 267.200 134.000 267.200 100.600 L 267.200 67.200 300.600 67.200 L 334.000 67.200 334.000 100.600 L 334.000 134.000 300.601 134.000 L 267.202 134.000 267.101 233.900 L 267.000 333.800 167.100 333.901 L 67.200 334.002 67.200 300.602 L 67.200 267.202 133.500 267.101 L 199.800 267.000 199.902 233.500 L 200.005 200.000 133.602 200.000 L 67.200 200.000 67.200 133.600 L 67.200 67.200 100.600 67.200 L 134.000 67.200 134.000 100.600 " stroke="none" fill="#040404" fill-rule="evenodd"></path></g></svg>