<svg id="svg" version="1.1" xmlns="http://www.w3.org/2000/svg" xmlns:xlink="http://www.w3.org/1999/xlink" width="400" height="400" viewBox="0, 0, 400,400"><g id="svgg"><path id="path0" d="M67.200 167.000 L 67.200 266.800 100.599 266.800 L 133.998 266.800 134.099 200.500 L 134.200 134.200 200.600 134.200 L 267.000 134.200 267.101 234.100 L 267.202 334.000 300.601 334.000 L 334.000 334.000 334.000 200.600 L 334.000 67.200 200.600 67.200 L 67.200 67.200 67.200 167.000 " stroke="none" fill="#fcfcfc" fill-rule="evenodd"></path><path id="path1" d="M0.000 200.000 L 0.000 400.000 200.000 400.000 L 400.000 400.000 400.000 200.000 L 400.000 0.000 200.000 0.000 L 0.000 0.000 0.000 200.000 M334.000 200.600 L 334.000 334.000 300.601 334.000 L 267.202 334.000 267.101 234.100 L 267.000 134.200 200.600 134.200 L 134.200 134.200 134.099 200.500 L 133.998 266.800 100.599 266.800 L 67.200 266.800 67.200 167.000 L 67.200 67.200 200.600 67.200 L 334.000 67.200 334.000 200.600 " stroke="none" fill="#040404" fill-rule="evenodd"></path></g></svg>