<svg id="svg" version="1.1" xmlns="http://www.w3.org/2000/svg" xmlns:xlink="http://www.w3.org/1999/xlink" width="400" height="400" viewBox="0, 0, 400,400"><g id="svgg"><path id="path0" d="M67.200 100.600 L 67.200 134.000 100.600 134.000 L 134.000 134.000 134.000 167.000 L 134.000 200.000 100.600 200.000 L 67.200 200.000 67.200 233.399 L 67.200 266.798 133.500 266.899 L 199.800 267.000 199.902 300.502 L 200.005 334.005 233.502 333.902 L 267.000 333.800 267.200 300.400 L 267.400 267.000 300.700 266.898 L 334.000 266.795 334.000 233.398 L 334.000 200.000 267.000 200.000 L 200.000 200.000 200.000 133.600 L 200.000 67.200 133.600 67.200 L 67.200 67.200 67.200 100.600 " stroke="none" fill="#fcfcfc" fill-rule="evenodd"></path><path id="path1" d="M0.000 200.000 L 0.000 400.000 200.000 400.000 L 400.000 400.000 400.000 200.000 L 400.000 0.000 200.000 0.000 L 0.000 0.000 0.000 200.000 M200.000 133.600 L 200.000 200.000 267.000 200.000 L 334.000 200.000 334.000 233.398 L 334.000 266.795 300.700 266.898 L 267.400 267.000 267.200 300.400 L 267.000 333.800 233.502 333.902 L 200.005 334.005 199.902 300.502 L 199.800 267.000 133.500 266.899 L 67.200 266.798 67.200 233.399 L 67.200 200.000 100.600 200.000 L 134.000 200.000 134.000 167.000 L 134.000 134.000 100.600 134.000 L 67.200 134.000 67.200 100.600 L 67.200 67.200 133.600 67.200 L 200.000 67.200 200.000 133.600 " stroke="none" fill="#040404" fill-rule="evenodd"></path></g></svg>